<svg width="1024" height="1024" viewBox="0 0 1024 1024" fill="none" xmlns="http://www.w3.org/2000/svg">
<path fill-rule="evenodd" clip-rule="evenodd" d="M80.857 136.863L41.954 75.33C126.082 55.762 280.939 54.792 369.283 102.268C534.05 198.145 604.001 338.802 652.136 514.184C665.095 561.4 667.22 635.318 661.014 680.084C645.661 790.822 612.616 814.587 564.677 891.713C426.058 913.22 181.792 964.296 70.533 942.024C211.993 816.183 322.457 632.469 283.845 530.648C283.845 530.648 249.749 429.98 80.857 136.863Z" fill="#EBD74C"/>
<path fill-rule="evenodd" clip-rule="evenodd" d="M80.1325 136.184C238.484 429.311 279.343 526.369 279.343 526.369C318.581 609.102 208.828 809.292 70.0016 933.983C179.189 956.051 433.253 912.92 569.293 891.61C616.338 815.189 634.423 784.163 649.49 674.437C655.582 630.082 653.495 556.839 640.778 510.055C593.539 336.277 524.89 196.906 363.191 101.905C276.491 54.8636 124.517 55.8247 41.9536 75.2147L80.1325 136.184Z" stroke="#31312F" stroke-width="39.9966" stroke-miterlimit="1.5" stroke-linecap="round" stroke-linejoin="round"/>
<path fill-rule="evenodd" clip-rule="evenodd" d="M651.951 649.28C742.101 637.415 732.687 700.479 937.896 667.605C1004.88 656.875 1008.85 836.796 966.193 902.65C966.193 902.65 896.38 1020.79 579.664 891.102C606.264 844.849 607.849 835.752 625.419 779.243C626.215 776.682 630.204 767.525 646.495 700.322C649.869 686.4 650.466 669.051 651.951 649.28Z" fill="#EBD74C"/>
<path fill-rule="evenodd" clip-rule="evenodd" d="M651.951 649.28C650.466 669.051 649.869 686.4 646.495 700.322C630.204 767.525 626.215 776.682 625.419 779.243C607.849 835.752 595.295 850.396 568.695 896.65C908.526 1025.95 966.193 930.043 966.193 902.65C969.465 829.292 1004.88 656.875 937.896 667.605C732.687 700.479 742.101 637.415 651.951 649.28Z" stroke="#31312F" stroke-width="39.9966" stroke-miterlimit="1.5" stroke-linecap="round" stroke-linejoin="round"/>
</svg>
